#!OML:ASF \\sashay\E\Suitcase\Project 1\Capture day 1\Session 1\Male1.ASF
:FULLY-SPECIFIED
:DEGREES
650
root 0.238547 17.374 4.81793 0.322713 3.02801 -6.57951
lowerback 6.53812 -0.255653 3.3807
upperback -3.25309 0.200575 3.29545
thorax -7.09259 0.027505 1.53509
lowerneck -19.2805 -1.66453 -0.979598
upperneck 21.316 -2.0316 0.0233255
head 9.98103 -1.01632 -0.115653
rclavicle 2.49723e-015 -1.61016e-014
rhumerus -29.1471 -23.8355 -70.2809
rradius 23.9337
rwrist -8.72016
rhand -12.1406 22.2709
rfingers 7.12502
rthumb 13.9215 -7.24308
lclavicle 2.49723e-015 -1.61016e-014
lhumerus -34.5061 -5.8853 86.6638
lradius 33.4069
lwrist -8.8813
lhand -0.170671 43.3474
lfingers 7.12502
lthumb 25.4269 71.6716
rfemur -5.28581 -0.656633 32.2797
rtibia 19.691
rfoot -12.8394 -10.7386
rtoes 19.6445
lfemur -24.2076 -1.38551 -11.322
ltibia 69.9687
lfoot -4.75509 -5.50636
ltoes 11.6054
651
root 0.23932 17.3478 4.95719 0.257606 2.75967 -6.65359
lowerback 6.44472 -0.15083 3.42983
upperback -3.00554 0.333284 3.38164
thorax -6.77559 0.096008 1.5766
lowerneck -19.5027 -1.81024 -2.22688
upperneck 21.2635 -2.11327 1.08518
head 10.0324 -1.02785 0.45146
rclavicle -2.08724e-015 -1.59028e-015
rhumerus -28.8999 -23.5792 -70.307
rradius 23.6192
rwrist -9.00273
rhand -12.2101 22.2986
rfingers 7.12502
rthumb 13.8546 -7.21995
lclavicle -2.08724e-015 -1.59028e-015
lhumerus -34.5718 -4.77828 86.4685
lradius 33.0967
lwrist -8.55576
lhand -0.85856 42.4847
lfingers 7.12502
lthumb 24.7678 70.9011
rfemur -4.72806 -0.546538 32.3899
rtibia 19.9375
rfoot -13.2445 -10.4388
rtoes 19.4856
lfemur -24.9277 -1.5236 -11.3091
ltibia 69.3055
lfoot -7.01062 -5.4083
ltoes 6.49815
652
root 0.23793 17.3392 5.09853 0.174706 2.58738 -6.71532
lowerback 6.57152 -0.0364684 3.58515
upperback -2.90464 0.500424 3.33487
thorax -6.74038 0.170872 1.41912
lowerneck -19.7738 -1.78057 -1.70166
upperneck 21.4462 -2.04956 0.370086
head 10.1324 -1.04075 0.118671
rclavicle -1.32937e-015 -4.17448e-015
rhumerus -28.965 -23.1651 -70.4353
rradius 23.5969
rwrist -9.57358
rhand -12.4317 21.9625
rfingers 7.12502
rthumb 13.641 -7.57052
lclavicle -1.32937e-015 -4.17448e-015
lhumerus -34.7122 -4.30588 86.3257
lradius 33.0338
lwrist -7.57466
lhand -1.116 43.1043
lfingers 7.12502
lthumb 24.521 71.5544
rfemur -4.18697 -0.592723 32.4782
rtibia 20.152
rfoot -13.5048 -10.2952
rtoes 18.1466
lfemur -25.5821 -1.57077 -11.3597
ltibia 68.4803
lfoot -7.52961 -4.49999
ltoes 6.1724
653
root 0.237402 17.3311 5.24065 0.182056 2.25564 -6.73852
lowerback 6.62291 0.0942107 3.67388
upperback -2.91657 0.683152 3.27009
thorax -6.78071 0.254687 1.27911
lowerneck -19.7392 -1.80531 -1.99867
upperneck 21.2989 -2.15859 1.03209
head 10.0861 -1.03511 0.386687
rclavicle -2.2239e-015 4.57205e-014
rhumerus -29.4886 -23.3797 -70.3258
rradius 23.8639
rwrist -9.19104
rhand -12.6693 21.6626
rfingers 7.12502
rthumb 13.4119 -7.88565
lclavicle -2.2239e-015 4.57205e-014
lhumerus -35.3378 -3.53194 85.9918
lradius 33.0648
lwrist -7.20584
lhand -1.39582 42.7092
lfingers 7.12502
lthumb 24.2528 71.1953
rfemur -3.66734 -0.300767 32.5264
rtibia 20.3329
rfoot -13.9631 -10.2244
rtoes 17.8638
lfemur -26.2548 -1.73609 -11.3959
ltibia 67.3974
lfoot -8.46415 -4.10563
ltoes 6.99547
654
root 0.244316 17.3147 5.38429 0.301736 1.92877 -6.70165
lowerback 6.3523 0.18949 3.70152
upperback -2.69234 0.783233 3.24825
thorax -6.3853 0.307345 1.22564
lowerneck -19.2849 -1.88859 -1.64383
upperneck 20.4651 -2.23842 0.441947
head 9.69474 -1.11633 0.115986
rclavicle 4.94477e-015 -4.17448e-015
rhumerus -29.212 -24.0971 -70.217
rradius 23.4657
rwrist -8.42072
rhand -12.5215 21.7654
rfingers 7.12502
rthumb 13.5544 -7.77343
lclavicle 4.94477e-015 -4.17448e-015
lhumerus -35.3021 -2.65018 85.6477
lradius 32.8503
lwrist -6.76542
lhand -0.988464 43.7324
lfingers 7.12502
lthumb 24.6433 72.1658
rfemur -3.2655 -0.0504975 32.4632
rtibia 20.3841
rfoot -14.3091 -9.99564
rtoes 18.3227
lfemur -27.0992 -1.9323 -11.5619
ltibia 66.2249
lfoot -9.18385 -3.55272
ltoes 6.9729
655
root 0.244953 17.3102 5.52592 0.333402 1.83314 -6.69414
lowerback 6.5276 0.270368 3.73174
upperback -2.67934 0.901525 3.20104
thorax -6.47041 0.362336 1.14489
lowerneck -20.5255 -1.73286 -1.50654
upperneck 21.4101 -1.99755 0.243897
head 10.2545 -1.01368 0.0431593
rclavicle 1.35174e-014 1.90833e-014
rhumerus -29.5212 -24.8485 -69.8704
rradius 23.4174
rwrist -7.69881
rhand -11.8831 21.5581
rfingers 7.12502
rthumb 14.1696 -7.93864
lclavicle 1.35174e-014 1.90833e-014
lhumerus -35.6776 -2.19077 85.4446
lradius 32.8091
lwrist -6.10346
lhand -1.18392 43.2309
lfingers 7.12502
lthumb 24.4559 71.6897
rfemur -2.73077 0.0779338 32.4629
rtibia 20.388
rfoot -14.5699 -9.95211
rtoes 18.2092
lfemur -27.6747 -2.22463 -11.6447
ltibia 64.8112
lfoot -9.79638 -3.04588
ltoes 5.01013
656
root 0.252226 17.3002 5.6684 0.399297 1.59715 -6.68063
lowerback 6.56614 0.365515 3.88302
upperback -2.73296 1.04129 3.09662
thorax -6.54417 0.421029 0.934243
lowerneck -19.8038 -1.81821 -2.01083
upperneck 20.8373 -2.12711 0.878197
head 9.93077 -1.03994 0.339468
rclavicle -1.84808e-014 -2.42517e-014
rhumerus -29.872 -24.26 -70.0518
rradius 23.2934
rwrist -8.38871
rhand -12.4699 21.7449
rfingers 7.12502
rthumb 13.6041 -7.79056
lclavicle -1.84808e-014 -2.42517e-014
lhumerus -35.9023 -1.26597 85.0336
lradius 32.194
lwrist -6.05611
lhand -1.32465 42.9407
lfingers 7.12502
lthumb 24.321 71.4177
rfemur -2.11366 -0.280835 32.3571
rtibia 20.1707
rfoot -14.8587 -9.35448
rtoes 17.3528
lfemur -28.2869 -2.439 -11.7267
ltibia 63.3353
lfoot -10.5341 -2.42275
ltoes 7.63899
